<?xml version="1.0" encoding="UTF-8" standalone="no"?>
<!DOCTYPE svg PUBLIC "-//W3C//DTD SVG 1.1//EN"
 "http://www.w3.org/Graphics/SVG/1.1/DTD/svg11.dtd">
<!-- Generated by graphviz version 14.1.2 (20260124.0452)
 -->
<!-- Title: ODTrack_Enterprise_Arch Pages: 1 -->
<svg width="2149pt" height="662pt"
 viewBox="0.00 0.00 2149.00 662.00" xmlns="http://www.w3.org/2000/svg" xmlns:xlink="http://www.w3.org/1999/xlink">
<g id="graph0" class="graph" transform="scale(1 1) rotate(0) translate(4 657.75)">
<title>ODTrack_Enterprise_Arch</title>
<polygon fill="#ffffff" stroke="none" points="-4,4 -4,-657.75 2145.25,-657.75 2145.25,4 -4,4"/>
<g id="clust1" class="cluster">
<title>cluster_0</title>
<path fill="#ffffff" stroke="#d0d7de" d="M20,-481.75C20,-481.75 457,-481.75 457,-481.75 463,-481.75 469,-487.75 469,-493.75 469,-493.75 469,-607.75 469,-607.75 469,-613.75 463,-619.75 457,-619.75 457,-619.75 20,-619.75 20,-619.75 14,-619.75 8,-613.75 8,-607.75 8,-607.75 8,-493.75 8,-493.75 8,-487.75 14,-481.75 20,-481.75"/>
<text xml:space="preserve" text-anchor="middle" x="238.5" y="-604.35" font-family="Arial" font-size="12.00" fill="#57606a">[ LAYER_00 : EDGE_SERVICES ]</text>
</g>
<g id="clust2" class="cluster">
<title>cluster_1</title>
<path fill="#ffffff" stroke="#0969da" d="M654,-481.75C654,-481.75 1470.62,-481.75 1470.62,-481.75 1476.62,-481.75 1482.62,-487.75 1482.62,-493.75 1482.62,-493.75 1482.62,-607.75 1482.62,-607.75 1482.62,-613.75 1476.62,-619.75 1470.62,-619.75 1470.62,-619.75 654,-619.75 654,-619.75 648,-619.75 642,-613.75 642,-607.75 642,-607.75 642,-493.75 642,-493.75 642,-487.75 648,-481.75 654,-481.75"/>
<text xml:space="preserve" text-anchor="middle" x="1062.31" y="-604.35" font-family="Arial" font-size="12.00" fill="#0969da">[ LAYER_01 : CLIENT_RUNTIME ]</text>
</g>
<g id="clust3" class="cluster">
<title>cluster_2</title>
<path fill="#ffffff" stroke="#1a7f37" d="M1353.25,-163.75C1353.25,-163.75 1781.25,-163.75 1781.25,-163.75 1787.25,-163.75 1793.25,-169.75 1793.25,-175.75 1793.25,-175.75 1793.25,-461.75 1793.25,-461.75 1793.25,-467.75 1787.25,-473.75 1781.25,-473.75 1781.25,-473.75 1353.25,-473.75 1353.25,-473.75 1347.25,-473.75 1341.25,-467.75 1341.25,-461.75 1341.25,-461.75 1341.25,-175.75 1341.25,-175.75 1341.25,-169.75 1347.25,-163.75 1353.25,-163.75"/>
<text xml:space="preserve" text-anchor="middle" x="1567.25" y="-458.35" font-family="Arial" font-size="12.00" fill="#1a7f37">[ LAYER_02 : BACKEND_MESH ]</text>
</g>
<g id="clust4" class="cluster">
<title>cluster_3</title>
<path fill="#ffffff" stroke="#8250df" d="M1989.5,-163.75C1989.5,-163.75 2129.25,-163.75 2129.25,-163.75 2135.25,-163.75 2141.25,-169.75 2141.25,-175.75 2141.25,-175.75 2141.25,-633.75 2141.25,-633.75 2141.25,-639.75 2135.25,-645.75 2129.25,-645.75 2129.25,-645.75 1989.5,-645.75 1989.5,-645.75 1983.5,-645.75 1977.5,-639.75 1977.5,-633.75 1977.5,-633.75 1977.5,-175.75 1977.5,-175.75 1977.5,-169.75 1983.5,-163.75 1989.5,-163.75"/>
<text xml:space="preserve" text-anchor="middle" x="2059.38" y="-630.35" font-family="Arial" font-size="12.00" fill="#8250df">[ LAYER_03 : DATA_GRID ]</text>
</g>
<!-- DNS -->
<g id="node1" class="node">
<title>DNS</title>
<polygon fill="#ffffff" stroke="none" points="24,-494 24,-585.5 142.75,-585.5 142.75,-494 24,-494"/>
<polygon fill="#0969da" stroke="none" points="24,-559.5 24,-585.5 142.75,-585.5 142.75,-559.5 24,-559.5"/>
<polygon fill="none" stroke="#2d333b" points="24,-559.5 24,-585.5 142.75,-585.5 142.75,-559.5 24,-559.5"/>
<text xml:space="preserve" text-anchor="start" x="31" y="-570" font-family="Arial" font-weight="bold" font-size="10.00" fill="#ffffff"> ROUTE 53 </text>
<text xml:space="preserve" text-anchor="start" x="32" y="-544.9" font-family="Arial" font-weight="bold" font-size="8.00" fill="#1c2128">SPEC:</text>
<text xml:space="preserve" text-anchor="start" x="56.75" y="-544.9" font-family="Arial" font-size="8.00" fill="#1c2128"> Global DNS Resolver</text>
<text xml:space="preserve" text-anchor="start" x="32" y="-520.1" font-family="Arial" font-weight="bold" font-size="7.00" fill="#57606a">CORE:</text>
<text xml:space="preserve" text-anchor="start" x="54.5" y="-520.1" font-family="Arial" font-size="7.00" fill="#57606a"> Anycast Network</text>
<polygon fill="#f6f8fa" stroke="none" points="24,-494 24,-509.5 142.75,-509.5 142.75,-494 24,-494"/>
<text xml:space="preserve" text-anchor="start" x="79.5" y="-500.8" font-family="Arial" font-weight="bold" font-size="6.00" fill="#0969da">PROTOCOL: UDP/53 </text>
</g>
<!-- WAF -->
<g id="node2" class="node">
<title>WAF</title>
<polygon fill="#ffffff" stroke="none" points="344.75,-494 344.75,-585.5 453,-585.5 453,-494 344.75,-494"/>
<polygon fill="#cf222e" stroke="none" points="344.75,-559.5 344.75,-585.5 453,-585.5 453,-559.5 344.75,-559.5"/>
<polygon fill="none" stroke="#2d333b" points="344.75,-559.5 344.75,-585.5 453,-585.5 453,-559.5 344.75,-559.5"/>
<text xml:space="preserve" text-anchor="start" x="351.75" y="-570" font-family="Arial" font-weight="bold" font-size="10.00" fill="#ffffff"> SECURITY WAF </text>
<text xml:space="preserve" text-anchor="start" x="352.75" y="-544.9" font-family="Arial" font-weight="bold" font-size="8.00" fill="#1c2128">SPEC:</text>
<text xml:space="preserve" text-anchor="start" x="377.5" y="-544.9" font-family="Arial" font-size="8.00" fill="#1c2128"> Layer 7 Protection</text>
<text xml:space="preserve" text-anchor="start" x="352.75" y="-520.1" font-family="Arial" font-weight="bold" font-size="7.00" fill="#57606a">CORE:</text>
<text xml:space="preserve" text-anchor="start" x="375.25" y="-520.1" font-family="Arial" font-size="7.00" fill="#57606a"> Traffic Filtering</text>
<polygon fill="#f6f8fa" stroke="none" points="344.75,-494 344.75,-509.5 453,-509.5 453,-494 344.75,-494"/>
<text xml:space="preserve" text-anchor="start" x="390.5" y="-500.8" font-family="Arial" font-weight="bold" font-size="6.00" fill="#cf222e">PROTOCOL: HTTPS </text>
</g>
<!-- DNS&#45;&gt;WAF -->
<g id="edge1" class="edge">
<title>DNS&#45;&gt;WAF</title>
<path fill="none" stroke="#808b96" stroke-width="1.5" d="M150.48,-539.75C201.56,-539.75 272.21,-539.75 324.94,-539.75"/>
<polygon fill="#808b96" stroke="#808b96" stroke-width="1.5" points="324.64,-543.25 334.64,-539.75 324.64,-536.25 324.64,-543.25"/>
<text xml:space="preserve" text-anchor="middle" x="243.75" y="-541.7" font-family="Arial" font-size="9.00">RESOLVE</text>
</g>
<!-- RM -->
<g id="node3" class="node">
<title>RM</title>
<polygon fill="#ffffff" stroke="none" points="658,-494 658,-585.5 794,-585.5 794,-494 658,-494"/>
<polygon fill="#0969da" stroke="none" points="658,-559.5 658,-585.5 794,-585.5 794,-559.5 658,-559.5"/>
<polygon fill="none" stroke="#2d333b" points="658,-559.5 658,-585.5 794,-585.5 794,-559.5 658,-559.5"/>
<text xml:space="preserve" text-anchor="start" x="665" y="-570" font-family="Arial" font-weight="bold" font-size="10.00" fill="#ffffff"> STATE MATRIX </text>
<text xml:space="preserve" text-anchor="start" x="666" y="-544.9" font-family="Arial" font-weight="bold" font-size="8.00" fill="#1c2128">SPEC:</text>
<text xml:space="preserve" text-anchor="start" x="690.75" y="-544.9" font-family="Arial" font-size="8.00" fill="#1c2128"> State Management Graph</text>
<text xml:space="preserve" text-anchor="start" x="666" y="-520.1" font-family="Arial" font-weight="bold" font-size="7.00" fill="#57606a">CORE:</text>
<text xml:space="preserve" text-anchor="start" x="688.5" y="-520.1" font-family="Arial" font-size="7.00" fill="#57606a"> Riverpod 2.5</text>
<polygon fill="#f6f8fa" stroke="none" points="658,-494 658,-509.5 794,-509.5 794,-494 658,-494"/>
<text xml:space="preserve" text-anchor="start" x="721" y="-500.8" font-family="Arial" font-weight="bold" font-size="6.00" fill="#0969da">PROTOCOL: In&#45;Memory </text>
</g>
<!-- WAF&#45;&gt;RM -->
<g id="edge2" class="edge">
<title>WAF&#45;&gt;RM</title>
<path fill="none" stroke="#0969da" stroke-width="1.5" d="M460.65,-539.75C510.65,-539.75 582.14,-539.75 638.18,-539.75"/>
<polygon fill="#0969da" stroke="#0969da" stroke-width="1.5" points="637.98,-543.25 647.98,-539.75 637.98,-536.25 637.98,-543.25"/>
<text xml:space="preserve" text-anchor="middle" x="555.5" y="-541.7" font-family="Arial" font-size="9.00">CONNECT</text>
</g>
<!-- SQ -->
<g id="node4" class="node">
<title>SQ</title>
<polygon fill="#ffffff" stroke="none" points="989.25,-494 989.25,-585.5 1121.5,-585.5 1121.5,-494 989.25,-494"/>
<polygon fill="#1a7f37" stroke="none" points="989.25,-559.5 989.25,-585.5 1121.5,-585.5 1121.5,-559.5 989.25,-559.5"/>
<polygon fill="none" stroke="#2d333b" points="989.25,-559.5 989.25,-585.5 1121.5,-585.5 1121.5,-559.5 989.25,-559.5"/>
<text xml:space="preserve" text-anchor="start" x="996.25" y="-570" font-family="Arial" font-weight="bold" font-size="10.00" fill="#ffffff"> SYNC ENGINE </text>
<text xml:space="preserve" text-anchor="start" x="997.25" y="-544.9" font-family="Arial" font-weight="bold" font-size="8.00" fill="#1c2128">SPEC:</text>
<text xml:space="preserve" text-anchor="start" x="1022" y="-544.9" font-family="Arial" font-size="8.00" fill="#1c2128"> Background Sync Engine</text>
<text xml:space="preserve" text-anchor="start" x="997.25" y="-520.1" font-family="Arial" font-weight="bold" font-size="7.00" fill="#57606a">CORE:</text>
<text xml:space="preserve" text-anchor="start" x="1019.75" y="-520.1" font-family="Arial" font-size="7.00" fill="#57606a"> SyncQueueManager</text>
<polygon fill="#f6f8fa" stroke="none" points="989.25,-494 989.25,-509.5 1121.5,-509.5 1121.5,-494 989.25,-494"/>
<text xml:space="preserve" text-anchor="start" x="1061.25" y="-500.8" font-family="Arial" font-weight="bold" font-size="6.00" fill="#1a7f37">PROTOCOL: Async </text>
</g>
<!-- RM&#45;&gt;SQ -->
<g id="edge3" class="edge">
<title>RM&#45;&gt;SQ</title>
<path fill="none" stroke="#808b96" stroke-width="1.5" d="M801.7,-539.75C851.58,-539.75 917.29,-539.75 969.21,-539.75"/>
<polygon fill="#808b96" stroke="#808b96" stroke-width="1.5" points="969.14,-543.25 979.14,-539.75 969.14,-536.25 969.14,-543.25"/>
<text xml:space="preserve" text-anchor="middle" x="891.62" y="-541.7" font-family="Arial" font-size="9.00">MUTATE</text>
</g>
<!-- HV -->
<g id="node5" class="node">
<title>HV</title>
<polygon fill="#ffffff" stroke="none" points="1362.12,-494 1362.12,-585.5 1466.62,-585.5 1466.62,-494 1362.12,-494"/>
<polygon fill="#0969da" stroke="none" points="1362.12,-559.5 1362.12,-585.5 1466.62,-585.5 1466.62,-559.5 1362.12,-559.5"/>
<polygon fill="none" stroke="#2d333b" points="1362.12,-559.5 1362.12,-585.5 1466.62,-585.5 1466.62,-559.5 1362.12,-559.5"/>
<text xml:space="preserve" text-anchor="start" x="1369.12" y="-570" font-family="Arial" font-weight="bold" font-size="10.00" fill="#ffffff"> LOCAL VAULT </text>
<text xml:space="preserve" text-anchor="start" x="1370.12" y="-544.9" font-family="Arial" font-weight="bold" font-size="8.00" fill="#1c2128">SPEC:</text>
<text xml:space="preserve" text-anchor="start" x="1394.88" y="-544.9" font-family="Arial" font-size="8.00" fill="#1c2128"> Encrypted Cache</text>
<text xml:space="preserve" text-anchor="start" x="1370.12" y="-520.1" font-family="Arial" font-weight="bold" font-size="7.00" fill="#57606a">CORE:</text>
<text xml:space="preserve" text-anchor="start" x="1392.62" y="-520.1" font-family="Arial" font-size="7.00" fill="#57606a"> Hive NoSQL</text>
<polygon fill="#f6f8fa" stroke="none" points="1362.12,-494 1362.12,-509.5 1466.62,-509.5 1466.62,-494 1362.12,-494"/>
<text xml:space="preserve" text-anchor="start" x="1400.38" y="-500.8" font-family="Arial" font-weight="bold" font-size="6.00" fill="#0969da">PROTOCOL: AES&#45;256 </text>
</g>
<!-- SQ&#45;&gt;HV -->
<g id="edge4" class="edge">
<title>SQ&#45;&gt;HV</title>
<path fill="none" stroke="#808b96" stroke-width="1.5" d="M1129.48,-539.75C1191.73,-539.75 1280.62,-539.75 1342.29,-539.75"/>
<polygon fill="#808b96" stroke="#808b96" stroke-width="1.5" points="1341.97,-543.25 1351.97,-539.75 1341.97,-536.25 1341.97,-543.25"/>
<text xml:space="preserve" text-anchor="middle" x="1239.38" y="-541.7" font-family="Arial" font-size="9.00">COMMIT</text>
</g>
<!-- GW -->
<g id="node6" class="node">
<title>GW</title>
<polygon fill="#ffffff" stroke="none" points="1357.25,-275 1357.25,-366.5 1471.5,-366.5 1471.5,-275 1357.25,-275"/>
<polygon fill="#0969da" stroke="none" points="1357.25,-340.5 1357.25,-366.5 1471.5,-366.5 1471.5,-340.5 1357.25,-340.5"/>
<polygon fill="none" stroke="#2d333b" points="1357.25,-340.5 1357.25,-366.5 1471.5,-366.5 1471.5,-340.5 1357.25,-340.5"/>
<text xml:space="preserve" text-anchor="start" x="1364.25" y="-351" font-family="Arial" font-weight="bold" font-size="10.00" fill="#ffffff"> API GATEWAY </text>
<text xml:space="preserve" text-anchor="start" x="1365.25" y="-325.9" font-family="Arial" font-weight="bold" font-size="8.00" fill="#1c2128">SPEC:</text>
<text xml:space="preserve" text-anchor="start" x="1390" y="-325.9" font-family="Arial" font-size="8.00" fill="#1c2128"> OAuth2 Gatekeeper</text>
<text xml:space="preserve" text-anchor="start" x="1365.25" y="-301.1" font-family="Arial" font-weight="bold" font-size="7.00" fill="#57606a">CORE:</text>
<text xml:space="preserve" text-anchor="start" x="1387.75" y="-301.1" font-family="Arial" font-size="7.00" fill="#57606a"> FastAPI Proxy</text>
<polygon fill="#f6f8fa" stroke="none" points="1357.25,-275 1357.25,-290.5 1471.5,-290.5 1471.5,-275 1357.25,-275"/>
<text xml:space="preserve" text-anchor="start" x="1413.5" y="-281.8" font-family="Arial" font-weight="bold" font-size="6.00" fill="#0969da">PROTOCOL: v1.4.2 </text>
</g>
<!-- SQ&#45;&gt;GW -->
<g id="edge5" class="edge">
<title>SQ&#45;&gt;GW</title>
<path fill="none" stroke="#1a7f37" stroke-width="2.5" d="M1129.48,-494.9C1190.23,-457.64 1276.36,-404.8 1337.79,-367.12"/>
<polygon fill="#1a7f37" stroke="#1a7f37" stroke-width="2.5" points="1339.42,-370.22 1346.12,-362.01 1335.76,-364.25 1339.42,-370.22"/>
<text xml:space="preserve" text-anchor="middle" x="1239.38" y="-451.82" font-family="Arial" font-size="9.00">UPLINK_STREAM</text>
</g>
<!-- LOG -->
<g id="node12" class="node">
<title>LOG</title>
<polygon fill="#ffffff" stroke="none" points="1664.88,-4 1664.88,-95.5 1775.38,-95.5 1775.38,-4 1664.88,-4"/>
<polygon fill="#2d333b" stroke="none" points="1664.88,-69.5 1664.88,-95.5 1775.38,-95.5 1775.38,-69.5 1664.88,-69.5"/>
<polygon fill="none" stroke="#2d333b" points="1664.88,-69.5 1664.88,-95.5 1775.38,-95.5 1775.38,-69.5 1664.88,-69.5"/>
<text xml:space="preserve" text-anchor="start" x="1671.88" y="-80" font-family="Arial" font-weight="bold" font-size="10.00" fill="#ffffff"> AUDIT LOGGER </text>
<text xml:space="preserve" text-anchor="start" x="1672.88" y="-54.9" font-family="Arial" font-weight="bold" font-size="8.00" fill="#1c2128">SPEC:</text>
<text xml:space="preserve" text-anchor="start" x="1697.62" y="-54.9" font-family="Arial" font-size="8.00" fill="#1c2128"> Diagnostics &amp; Audit</text>
<text xml:space="preserve" text-anchor="start" x="1672.88" y="-30.1" font-family="Arial" font-weight="bold" font-size="7.00" fill="#57606a">CORE:</text>
<text xml:space="preserve" text-anchor="start" x="1695.38" y="-30.1" font-family="Arial" font-size="7.00" fill="#57606a"> AuditRecoveryService</text>
<polygon fill="#f6f8fa" stroke="none" points="1664.88,-4 1664.88,-19.5 1775.38,-19.5 1775.38,-4 1664.88,-4"/>
<text xml:space="preserve" text-anchor="start" x="1721.88" y="-10.8" font-family="Arial" font-weight="bold" font-size="6.00" fill="#2d333b">PROTOCOL: v2.1 </text>
</g>
<!-- SQ&#45;&gt;LOG -->
<g id="edge12" class="edge">
<title>SQ&#45;&gt;LOG</title>
<path fill="none" stroke="#808b96" stroke-width="1.5" stroke-dasharray="5,2" d="M1078.05,-490.33C1117.64,-406.07 1209.82,-235.05 1341.25,-145.75 1433.65,-82.97 1563.95,-61.24 1644.89,-53.72"/>
<polygon fill="#808b96" stroke="#808b96" stroke-width="1.5" points="1645.03,-57.22 1654.69,-52.87 1644.42,-50.25 1645.03,-57.22"/>
</g>
<!-- CS -->
<g id="node7" class="node">
<title>CS</title>
<polygon fill="#ffffff" stroke="none" points="1663,-348 1663,-439.5 1777.25,-439.5 1777.25,-348 1663,-348"/>
<polygon fill="#0969da" stroke="none" points="1663,-413.5 1663,-439.5 1777.25,-439.5 1777.25,-413.5 1663,-413.5"/>
<polygon fill="none" stroke="#2d333b" points="1663,-413.5 1663,-439.5 1777.25,-439.5 1777.25,-413.5 1663,-413.5"/>
<text xml:space="preserve" text-anchor="start" x="1670" y="-424" font-family="Arial" font-weight="bold" font-size="10.00" fill="#ffffff"> OD WORKFLOWS </text>
<text xml:space="preserve" text-anchor="start" x="1671" y="-398.9" font-family="Arial" font-weight="bold" font-size="8.00" fill="#1c2128">SPEC:</text>
<text xml:space="preserve" text-anchor="start" x="1695.75" y="-398.9" font-family="Arial" font-size="8.00" fill="#1c2128"> Request Processing</text>
<text xml:space="preserve" text-anchor="start" x="1671" y="-374.1" font-family="Arial" font-weight="bold" font-size="7.00" fill="#57606a">CORE:</text>
<text xml:space="preserve" text-anchor="start" x="1693.5" y="-374.1" font-family="Arial" font-size="7.00" fill="#57606a"> Business Logic</text>
<polygon fill="#f6f8fa" stroke="none" points="1663,-348 1663,-363.5 1777.25,-363.5 1777.25,-348 1663,-348"/>
<text xml:space="preserve" text-anchor="start" x="1711" y="-354.8" font-family="Arial" font-weight="bold" font-size="6.00" fill="#0969da">PROTOCOL: Python3 </text>
</g>
<!-- GW&#45;&gt;CS -->
<g id="edge6" class="edge">
<title>GW&#45;&gt;CS</title>
<path fill="none" stroke="#808b96" stroke-width="1.5" d="M1479.42,-336.14C1527.28,-347.64 1592.87,-363.41 1643.34,-375.54"/>
<polygon fill="#808b96" stroke="#808b96" stroke-width="1.5" points="1642.42,-378.91 1652.96,-377.85 1644.05,-372.11 1642.42,-378.91"/>
<text xml:space="preserve" text-anchor="middle" x="1567.25" y="-361.39" font-family="Arial" font-size="9.00">PROXY</text>
</g>
<!-- AS -->
<g id="node8" class="node">
<title>AS</title>
<polygon fill="#ffffff" stroke="none" points="1666.75,-176 1666.75,-267.5 1773.5,-267.5 1773.5,-176 1666.75,-176"/>
<polygon fill="#0969da" stroke="none" points="1666.75,-241.5 1666.75,-267.5 1773.5,-267.5 1773.5,-241.5 1666.75,-241.5"/>
<polygon fill="none" stroke="#2d333b" points="1666.75,-241.5 1666.75,-267.5 1773.5,-267.5 1773.5,-241.5 1666.75,-241.5"/>
<text xml:space="preserve" text-anchor="start" x="1673.75" y="-252" font-family="Arial" font-weight="bold" font-size="10.00" fill="#ffffff"> IDENTITY SVC </text>
<text xml:space="preserve" text-anchor="start" x="1674.75" y="-226.9" font-family="Arial" font-weight="bold" font-size="8.00" fill="#1c2128">SPEC:</text>
<text xml:space="preserve" text-anchor="start" x="1699.5" y="-226.9" font-family="Arial" font-size="8.00" fill="#1c2128"> JWT Authorization</text>
<text xml:space="preserve" text-anchor="start" x="1674.75" y="-202.1" font-family="Arial" font-weight="bold" font-size="7.00" fill="#57606a">CORE:</text>
<text xml:space="preserve" text-anchor="start" x="1697.25" y="-202.1" font-family="Arial" font-size="7.00" fill="#57606a"> RS256 Provider</text>
<polygon fill="#f6f8fa" stroke="none" points="1666.75,-176 1666.75,-191.5 1773.5,-191.5 1773.5,-176 1666.75,-176"/>
<text xml:space="preserve" text-anchor="start" x="1715.5" y="-182.8" font-family="Arial" font-weight="bold" font-size="6.00" fill="#0969da">PROTOCOL: OIDC </text>
</g>
<!-- GW&#45;&gt;AS -->
<g id="edge7" class="edge">
<title>GW&#45;&gt;AS</title>
<path fill="none" stroke="#808b96" stroke-width="1.5" d="M1479.42,-299.88C1528.51,-283.88 1596.25,-261.8 1647.2,-245.19"/>
<polygon fill="#808b96" stroke="#808b96" stroke-width="1.5" points="1648.2,-248.55 1656.63,-242.12 1646.03,-241.89 1648.2,-248.55"/>
<text xml:space="preserve" text-anchor="middle" x="1567.25" y="-276.17" font-family="Arial" font-size="9.00">AUTH</text>
</g>
<!-- GW&#45;&gt;LOG -->
<g id="edge11" class="edge">
<title>GW&#45;&gt;LOG</title>
<path fill="none" stroke="#808b96" stroke-width="1.5" stroke-dasharray="5,2" d="M1471.09,-271.04C1522.92,-224.8 1600.15,-155.9 1654.63,-107.29"/>
<polygon fill="#808b96" stroke="#808b96" stroke-width="1.5" points="1656.68,-110.15 1661.82,-100.88 1652.02,-104.93 1656.68,-110.15"/>
</g>
<!-- DB -->
<g id="node9" class="node">
<title>DB</title>
<polygon fill="#ffffff" stroke="none" points="2007,-520 2007,-611.5 2110.75,-611.5 2110.75,-520 2007,-520"/>
<polygon fill="#0969da" stroke="none" points="2007,-585.5 2007,-611.5 2110.75,-611.5 2110.75,-585.5 2007,-585.5"/>
<polygon fill="none" stroke="#2d333b" points="2007,-585.5 2007,-611.5 2110.75,-611.5 2110.75,-585.5 2007,-585.5"/>
<text xml:space="preserve" text-anchor="start" x="2014" y="-596" font-family="Arial" font-weight="bold" font-size="10.00" fill="#ffffff"> POSTGRESQL </text>
<text xml:space="preserve" text-anchor="start" x="2015" y="-570.9" font-family="Arial" font-weight="bold" font-size="8.00" fill="#1c2128">SPEC:</text>
<text xml:space="preserve" text-anchor="start" x="2039.75" y="-570.9" font-family="Arial" font-size="8.00" fill="#1c2128"> Main Persistence</text>
<text xml:space="preserve" text-anchor="start" x="2015" y="-546.1" font-family="Arial" font-weight="bold" font-size="7.00" fill="#57606a">CORE:</text>
<text xml:space="preserve" text-anchor="start" x="2037.5" y="-546.1" font-family="Arial" font-size="7.00" fill="#57606a"> Relational DB</text>
<polygon fill="#f6f8fa" stroke="none" points="2007,-520 2007,-535.5 2110.75,-535.5 2110.75,-520 2007,-520"/>
<text xml:space="preserve" text-anchor="start" x="2042.25" y="-526.8" font-family="Arial" font-weight="bold" font-size="6.00" fill="#0969da">PROTOCOL: Port 5432 </text>
</g>
<!-- CS&#45;&gt;DB -->
<g id="edge8" class="edge">
<title>CS&#45;&gt;DB</title>
<path fill="none" stroke="#8250df" stroke-width="1.5" d="M1784.86,-426.3C1842.93,-455.96 1928.51,-499.68 1988.33,-530.23"/>
<polygon fill="#8250df" stroke="#8250df" stroke-width="1.5" points="1986.67,-533.31 1997.17,-534.74 1989.85,-527.08 1986.67,-533.31"/>
</g>
<!-- KF -->
<g id="node11" class="node">
<title>KF</title>
<polygon fill="#ffffff" stroke="none" points="2006.62,-348 2006.62,-439.5 2111.12,-439.5 2111.12,-348 2006.62,-348"/>
<polygon fill="#cf222e" stroke="none" points="2006.62,-413.5 2006.62,-439.5 2111.12,-439.5 2111.12,-413.5 2006.62,-413.5"/>
<polygon fill="none" stroke="#2d333b" points="2006.62,-413.5 2006.62,-439.5 2111.12,-439.5 2111.12,-413.5 2006.62,-413.5"/>
<text xml:space="preserve" text-anchor="start" x="2013.62" y="-424" font-family="Arial" font-weight="bold" font-size="10.00" fill="#ffffff"> KAFKA BUS </text>
<text xml:space="preserve" text-anchor="start" x="2014.62" y="-398.9" font-family="Arial" font-weight="bold" font-size="8.00" fill="#1c2128">SPEC:</text>
<text xml:space="preserve" text-anchor="start" x="2039.38" y="-398.9" font-family="Arial" font-size="8.00" fill="#1c2128"> Event Processing</text>
<text xml:space="preserve" text-anchor="start" x="2014.62" y="-374.1" font-family="Arial" font-weight="bold" font-size="7.00" fill="#57606a">CORE:</text>
<text xml:space="preserve" text-anchor="start" x="2037.12" y="-374.1" font-family="Arial" font-size="7.00" fill="#57606a"> Schema Registry</text>
<polygon fill="#f6f8fa" stroke="none" points="2006.62,-348 2006.62,-363.5 2111.12,-363.5 2111.12,-348 2006.62,-348"/>
<text xml:space="preserve" text-anchor="start" x="2034.38" y="-354.8" font-family="Arial" font-weight="bold" font-size="6.00" fill="#cf222e">PROTOCOL: Async Pulse </text>
</g>
<!-- CS&#45;&gt;KF -->
<g id="edge10" class="edge">
<title>CS&#45;&gt;KF</title>
<path fill="none" stroke="#cf222e" stroke-width="1.5" d="M1784.86,-393.75C1842.39,-393.75 1926.92,-393.75 1986.66,-393.75"/>
<polygon fill="#cf222e" stroke="#cf222e" stroke-width="1.5" points="1986.36,-397.25 1996.36,-393.75 1986.36,-390.25 1986.36,-397.25"/>
<text xml:space="preserve" text-anchor="middle" x="1885.38" y="-395.7" font-family="Arial" font-size="9.00">EMIT_EVENT</text>
</g>
<!-- RD -->
<g id="node10" class="node">
<title>RD</title>
<polygon fill="#ffffff" stroke="none" points="2005.5,-176 2005.5,-267.5 2112.25,-267.5 2112.25,-176 2005.5,-176"/>
<polygon fill="#0969da" stroke="none" points="2005.5,-241.5 2005.5,-267.5 2112.25,-267.5 2112.25,-241.5 2005.5,-241.5"/>
<polygon fill="none" stroke="#2d333b" points="2005.5,-241.5 2005.5,-267.5 2112.25,-267.5 2112.25,-241.5 2005.5,-241.5"/>
<text xml:space="preserve" text-anchor="start" x="2012.5" y="-252" font-family="Arial" font-weight="bold" font-size="10.00" fill="#ffffff"> REDIS GRID </text>
<text xml:space="preserve" text-anchor="start" x="2013.5" y="-226.9" font-family="Arial" font-weight="bold" font-size="8.00" fill="#1c2128">SPEC:</text>
<text xml:space="preserve" text-anchor="start" x="2038.25" y="-226.9" font-family="Arial" font-size="8.00" fill="#1c2128"> Distributed Cache</text>
<text xml:space="preserve" text-anchor="start" x="2013.5" y="-202.1" font-family="Arial" font-weight="bold" font-size="7.00" fill="#57606a">CORE:</text>
<text xml:space="preserve" text-anchor="start" x="2036" y="-202.1" font-family="Arial" font-size="7.00" fill="#57606a"> LRU Key/Value</text>
<polygon fill="#f6f8fa" stroke="none" points="2005.5,-176 2005.5,-191.5 2112.25,-191.5 2112.25,-176 2005.5,-176"/>
<text xml:space="preserve" text-anchor="start" x="2043.75" y="-182.8" font-family="Arial" font-weight="bold" font-size="6.00" fill="#0969da">PROTOCOL: Port 6379 </text>
</g>
<!-- AS&#45;&gt;RD -->
<g id="edge9" class="edge">
<title>AS&#45;&gt;RD</title>
<path fill="none" stroke="#8250df" stroke-width="1.5" d="M1781.33,-221.75C1838.5,-221.75 1924.51,-221.75 1985.41,-221.75"/>
<polygon fill="#8250df" stroke="#8250df" stroke-width="1.5" points="1985.36,-225.25 1995.36,-221.75 1985.35,-218.25 1985.36,-225.25"/>
</g>
</g>
</svg>
