<?xml version="1.0" encoding="UTF-8" standalone="no"?>
<!DOCTYPE svg PUBLIC "-//W3C//DTD SVG 1.1//EN"
 "http://www.w3.org/Graphics/SVG/1.1/DTD/svg11.dtd">
<!-- Generated by graphviz version 14.1.2 (20260124.0452)
 -->
<!-- Title: ODTrack_Enterprise_Arch_Light Pages: 1 -->
<svg width="1286pt" height="635pt"
 viewBox="0.00 0.00 1286.00 635.00" xmlns="http://www.w3.org/2000/svg" xmlns:xlink="http://www.w3.org/1999/xlink">
<g id="graph0" class="graph" transform="scale(1 1) rotate(0) translate(36 599)">
<title>ODTrack_Enterprise_Arch_Light</title>
<polygon fill="#ffffff" stroke="none" points="-36,36 -36,-599 1249.5,-599 1249.5,36 -36,36"/>
<g id="clust1" class="cluster">
<title>cluster_clients</title>
<polygon fill="#ffffff" stroke="#24292e" stroke-dasharray="5,2" points="8,-344 8,-555 418,-555 418,-344 8,-344"/>
<text xml:space="preserve" text-anchor="middle" x="213" y="-537.7" font-family="Inter, Arial" font-size="14.00" fill="#24292e">CLIENT ECOSYSTEM</text>
</g>
<g id="clust2" class="cluster">
<title>cluster_flutter</title>
<polygon fill="#ffffff" stroke="#0366d6" points="23,-13 23,-117 719,-117 719,-13 23,-13"/>
<text xml:space="preserve" text-anchor="middle" x="371" y="-99.7" font-family="Inter, Arial" font-size="14.00" fill="#0366d6">OFFLINE&#45;FIRST CORE</text>
</g>
<g id="clust3" class="cluster">
<title>cluster_api</title>
<polygon fill="#ffffff" stroke="#28a745" points="575.75,-125 575.75,-336 975.5,-336 975.5,-125 575.75,-125"/>
<text xml:space="preserve" text-anchor="middle" x="775.62" y="-318.7" font-family="Inter, Arial" font-size="14.00" fill="#28a745">MICROSERVICES MESH</text>
</g>
<g id="clust4" class="cluster">
<title>cluster_data</title>
<polygon fill="#ffffff" stroke="#6f42c1" points="1046.5,-73 1046.5,-391 1205.5,-391 1205.5,-73 1046.5,-73"/>
<text xml:space="preserve" text-anchor="middle" x="1126" y="-373.7" font-family="Inter, Arial" font-size="14.00" fill="#6f42c1">INFRASTRUCTURE</text>
</g>
<g id="clust5" class="cluster">
<title>cluster_sec</title>
<polygon fill="#ffffff" stroke="#d73a49" points="557.75,-344 557.75,-555 730.5,-555 730.5,-344 557.75,-344"/>
<text xml:space="preserve" text-anchor="middle" x="644.12" y="-537.7" font-family="Inter, Arial" font-size="14.00" fill="#d73a49">SHADOW MONITORING</text>
</g>
<!-- Mobile -->
<g id="node1" class="node">
<title>Mobile</title>
<polygon fill="#f6f8fa" stroke="none" points="24,-463 24,-519 179.5,-519 179.5,-463 24,-463"/>
<polygon fill="#0366d6" stroke="none" points="24,-495.5 24,-519 179.5,-519 179.5,-495.5 24,-495.5"/>
<polygon fill="none" stroke="#d1d5da" points="24,-495.5 24,-519 179.5,-519 179.5,-495.5 24,-495.5"/>
<text xml:space="preserve" text-anchor="start" x="53.38" y="-504.55" font-family="Inter, Arial" font-weight="bold" font-size="11.00" fill="#ffffff">FLUTTER MOBILE</text>
<polygon fill="none" stroke="#d1d5da" points="24,-463 24,-495.5 179.5,-495.5 179.5,-463 24,-463"/>
<text xml:space="preserve" text-anchor="start" x="35" y="-475.95" font-family="Inter, Arial" font-size="9.00" fill="#24292e">Cross&#45;Platform Student/Staff App</text>
</g>
<!-- WAF -->
<g id="node3" class="node">
<title>WAF</title>
<polygon fill="#f6f8fa" stroke="none" points="285.5,-356 285.5,-412 402,-412 402,-356 285.5,-356"/>
<polygon fill="#6f42c1" stroke="none" points="285.5,-388.5 285.5,-412 402,-412 402,-388.5 285.5,-388.5"/>
<polygon fill="none" stroke="#d1d5da" points="285.5,-388.5 285.5,-412 402,-412 402,-388.5 285.5,-388.5"/>
<text xml:space="preserve" text-anchor="start" x="299.5" y="-397.55" font-family="Inter, Arial" font-weight="bold" font-size="11.00" fill="#ffffff">EDGE GATEWAY</text>
<polygon fill="none" stroke="#d1d5da" points="285.5,-356 285.5,-388.5 402,-388.5 402,-356 285.5,-356"/>
<text xml:space="preserve" text-anchor="start" x="296.5" y="-368.95" font-family="Inter, Arial" font-size="9.00" fill="#24292e">WAF / DDoS Protection</text>
</g>
<!-- Mobile&#45;&gt;WAF -->
<g id="edge1" class="edge">
<title>Mobile&#45;&gt;WAF</title>
<path fill="none" stroke="#d1d5da" stroke-width="2" d="M174.43,-459.04C203.2,-446.21 236.42,-431.4 265.71,-418.35"/>
<polygon fill="#d1d5da" stroke="#d1d5da" stroke-width="2" points="267.1,-421.56 274.81,-414.29 264.25,-415.17 267.1,-421.56"/>
</g>
<!-- Integrity -->
<g id="node14" class="node">
<title>Integrity</title>
<polygon fill="#f6f8fa" stroke="none" points="582,-463 582,-519 705.25,-519 705.25,-463 582,-463"/>
<polygon fill="#0366d6" stroke="none" points="582,-495.5 582,-519 705.25,-519 705.25,-495.5 582,-495.5"/>
<polygon fill="none" stroke="#d1d5da" points="582,-495.5 582,-519 705.25,-519 705.25,-495.5 582,-495.5"/>
<text xml:space="preserve" text-anchor="start" x="607.62" y="-504.55" font-family="Inter, Arial" font-weight="bold" font-size="11.00" fill="#ffffff">ROOTCHECK</text>
<polygon fill="none" stroke="#d1d5da" points="582,-463 582,-495.5 705.25,-495.5 705.25,-463 582,-463"/>
<text xml:space="preserve" text-anchor="start" x="593" y="-475.95" font-family="Inter, Arial" font-size="9.00" fill="#24292e">Platform Integrity Service</text>
</g>
<!-- Mobile&#45;&gt;Integrity -->
<g id="edge15" class="edge">
<title>Mobile&#45;&gt;Integrity</title>
<path fill="none" stroke="#d1d5da" stroke-width="2" stroke-dasharray="5,2" d="M187.4,-491C294.23,-491 475.89,-491 574.33,-491"/>
</g>
<!-- Web -->
<g id="node2" class="node">
<title>Web</title>
<polygon fill="#f6f8fa" stroke="none" points="43.5,-356 43.5,-412 160,-412 160,-356 43.5,-356"/>
<polygon fill="#0366d6" stroke="none" points="43.5,-388.5 43.5,-412 160,-412 160,-388.5 43.5,-388.5"/>
<polygon fill="none" stroke="#d1d5da" points="43.5,-388.5 43.5,-412 160,-412 160,-388.5 43.5,-388.5"/>
<text xml:space="preserve" text-anchor="start" x="59.38" y="-397.55" font-family="Inter, Arial" font-weight="bold" font-size="11.00" fill="#ffffff">ADMIN PORTAL</text>
<polygon fill="none" stroke="#d1d5da" points="43.5,-356 43.5,-388.5 160,-388.5 160,-356 43.5,-356"/>
<text xml:space="preserve" text-anchor="start" x="54.5" y="-368.95" font-family="Inter, Arial" font-size="9.00" fill="#24292e">Flutter Web Dashboard</text>
</g>
<!-- Web&#45;&gt;WAF -->
<g id="edge2" class="edge">
<title>Web&#45;&gt;WAF</title>
<path fill="none" stroke="#d1d5da" stroke-width="2" d="M167.7,-384C197.71,-384 233.59,-384 265.03,-384"/>
<polygon fill="#d1d5da" stroke="#d1d5da" stroke-width="2" points="264.72,-387.5 274.72,-384 264.72,-380.5 264.72,-387.5"/>
</g>
<!-- FastAPI -->
<g id="node7" class="node">
<title>FastAPI</title>
<polygon fill="#f6f8fa" stroke="none" points="591.75,-190 591.75,-246 695.5,-246 695.5,-190 591.75,-190"/>
<polygon fill="#28a745" stroke="none" points="591.75,-222.5 591.75,-246 695.5,-246 695.5,-222.5 591.75,-222.5"/>
<polygon fill="none" stroke="#d1d5da" points="591.75,-222.5 591.75,-246 695.5,-246 695.5,-222.5 591.75,-222.5"/>
<text xml:space="preserve" text-anchor="start" x="599" y="-231.55" font-family="Inter, Arial" font-weight="bold" font-size="11.00" fill="#ffffff">CORE GATEWAY</text>
<polygon fill="none" stroke="#d1d5da" points="591.75,-190 591.75,-222.5 695.5,-222.5 695.5,-190 591.75,-190"/>
<text xml:space="preserve" text-anchor="start" x="602.75" y="-202.95" font-family="Inter, Arial" font-size="9.00" fill="#24292e">Pydantic&#45;Driven API</text>
</g>
<!-- WAF&#45;&gt;FastAPI -->
<g id="edge3" class="edge">
<title>WAF&#45;&gt;FastAPI</title>
<path fill="none" stroke="#0366d6" stroke-width="2" d="M401.83,-352.19C450.93,-324.83 521.89,-285.28 574.07,-256.21"/>
<polygon fill="#0366d6" stroke="#0366d6" stroke-width="2" points="575.55,-259.38 582.59,-251.46 572.15,-253.27 575.55,-259.38"/>
<text xml:space="preserve" text-anchor="middle" x="489.38" y="-323.25" font-family="Inter, Arial" font-size="10.00" fill="#0366d6">GRPC/REST</text>
</g>
<!-- DNSMonitor -->
<g id="node13" class="node">
<title>DNSMonitor</title>
<polygon fill="#f6f8fa" stroke="none" points="575.62,-356 575.62,-412 711.62,-412 711.62,-356 575.62,-356"/>
<polygon fill="#0366d6" stroke="none" points="575.62,-388.5 575.62,-412 711.62,-412 711.62,-388.5 575.62,-388.5"/>
<polygon fill="none" stroke="#d1d5da" points="575.62,-388.5 575.62,-412 711.62,-412 711.62,-388.5 575.62,-388.5"/>
<text xml:space="preserve" text-anchor="start" x="611.75" y="-397.55" font-family="Inter, Arial" font-weight="bold" font-size="11.00" fill="#ffffff">NETGUARD</text>
<polygon fill="none" stroke="#d1d5da" points="575.62,-356 575.62,-388.5 711.62,-388.5 711.62,-356 575.62,-356"/>
<text xml:space="preserve" text-anchor="start" x="586.62" y="-368.95" font-family="Inter, Arial" font-size="9.00" fill="#24292e">DNS/DHCP Spoofing Probe</text>
</g>
<!-- WAF&#45;&gt;DNSMonitor -->
<g id="edge14" class="edge">
<title>WAF&#45;&gt;DNSMonitor</title>
<path fill="none" stroke="#d1d5da" stroke-width="2" stroke-dasharray="5,2" d="M409.75,-384C456.31,-384 519.13,-384 567.78,-384"/>
</g>
<!-- Riverpod -->
<g id="node4" class="node">
<title>Riverpod</title>
<polygon fill="#f6f8fa" stroke="none" points="39,-25 39,-81 164.5,-81 164.5,-25 39,-25"/>
<polygon fill="#0366d6" stroke="none" points="39,-57.5 39,-81 164.5,-81 164.5,-57.5 39,-57.5"/>
<polygon fill="none" stroke="#d1d5da" points="39,-57.5 39,-81 164.5,-81 164.5,-57.5 39,-57.5"/>
<text xml:space="preserve" text-anchor="start" x="61.62" y="-66.55" font-family="Inter, Arial" font-weight="bold" font-size="11.00" fill="#ffffff">STATE MATRIX</text>
<polygon fill="none" stroke="#d1d5da" points="39,-25 39,-57.5 164.5,-57.5 164.5,-25 39,-25"/>
<text xml:space="preserve" text-anchor="start" x="50" y="-37.95" font-family="Inter, Arial" font-size="9.00" fill="#24292e">Riverpod Reactive Graph</text>
</g>
<!-- SyncEngine -->
<g id="node5" class="node">
<title>SyncEngine</title>
<polygon fill="#f6f8fa" stroke="none" points="282.5,-25 282.5,-81 405,-81 405,-25 282.5,-25"/>
<polygon fill="#f1e05a" stroke="none" points="282.5,-57.5 282.5,-81 405,-81 405,-57.5 282.5,-57.5"/>
<polygon fill="none" stroke="#d1d5da" points="282.5,-57.5 282.5,-81 405,-81 405,-57.5 282.5,-57.5"/>
<text xml:space="preserve" text-anchor="start" x="297.62" y="-66.55" font-family="Inter, Arial" font-weight="bold" font-size="11.00" fill="#ffffff">SYNC MANAGER</text>
<polygon fill="none" stroke="#d1d5da" points="282.5,-25 282.5,-57.5 405,-57.5 405,-25 282.5,-25"/>
<text xml:space="preserve" text-anchor="start" x="293.5" y="-37.95" font-family="Inter, Arial" font-size="9.00" fill="#24292e">Background Task Queue</text>
</g>
<!-- Riverpod&#45;&gt;SyncEngine -->
<g id="edge5" class="edge">
<title>Riverpod&#45;&gt;SyncEngine</title>
<path fill="none" stroke="#d1d5da" stroke-width="2" d="M172.49,-53C200.58,-53 233.16,-53 262.25,-53"/>
<polygon fill="#d1d5da" stroke="#d1d5da" stroke-width="2" points="261.88,-56.5 271.88,-53 261.88,-49.5 261.88,-56.5"/>
</g>
<!-- HiveDB -->
<g id="node6" class="node">
<title>HiveDB</title>
<polygon fill="#f6f8fa" stroke="none" points="584.25,-25 584.25,-81 703,-81 703,-25 584.25,-25"/>
<polygon fill="#0366d6" stroke="none" points="584.25,-57.5 584.25,-81 703,-81 703,-57.5 584.25,-57.5"/>
<polygon fill="none" stroke="#d1d5da" points="584.25,-57.5 584.25,-81 703,-81 703,-57.5 584.25,-57.5"/>
<text xml:space="preserve" text-anchor="start" x="602.75" y="-66.55" font-family="Inter, Arial" font-weight="bold" font-size="11.00" fill="#ffffff">LOCAL CACHE</text>
<polygon fill="none" stroke="#d1d5da" points="584.25,-25 584.25,-57.5 703,-57.5 703,-25 584.25,-25"/>
<text xml:space="preserve" text-anchor="start" x="595.25" y="-37.95" font-family="Inter, Arial" font-size="9.00" fill="#24292e">Encrypted NoSQL Store</text>
</g>
<!-- SyncEngine&#45;&gt;HiveDB -->
<g id="edge6" class="edge">
<title>SyncEngine&#45;&gt;HiveDB</title>
<path fill="none" stroke="#d1d5da" stroke-width="2" d="M412.72,-53C457.6,-53 516.59,-53 563.58,-53"/>
<polygon fill="#d1d5da" stroke="#d1d5da" stroke-width="2" points="563.46,-56.5 573.46,-53 563.46,-49.5 563.46,-56.5"/>
</g>
<!-- SyncEngine&#45;&gt;FastAPI -->
<g id="edge7" class="edge">
<title>SyncEngine&#45;&gt;FastAPI</title>
<path fill="none" stroke="#f1e05a" stroke-width="2" d="M402.18,-84.81C451.17,-111.95 521.71,-151.02 573.73,-179.84"/>
<polygon fill="#f1e05a" stroke="#f1e05a" stroke-width="2" points="571.77,-182.75 582.21,-184.54 575.16,-176.63 571.77,-182.75"/>
<text xml:space="preserve" text-anchor="middle" x="489.38" y="-152.78" font-family="Inter, Arial" font-size="10.00" fill="#0366d6">ASYNC SYNC</text>
</g>
<!-- FastAPI&#45;&gt;Riverpod -->
<g id="edge4" class="edge">
<title>FastAPI&#45;&gt;Riverpod</title>
<path fill="none" stroke="#d1d5da" stroke-width="2" stroke-dasharray="1,5" d="M600.78,-177.39C535.79,-114.32 418,0 418,0 418,0 274.5,0 274.5,0 274.5,0 228.78,-14.11 184.52,-27.77"/>
<polygon fill="#d1d5da" stroke="#d1d5da" stroke-width="2" points="598.18,-179.74 607.79,-184.19 603.05,-174.72 598.18,-179.74"/>
<polygon fill="#d1d5da" stroke="#d1d5da" stroke-width="2" points="183.53,-24.41 175,-30.7 185.59,-31.1 183.53,-24.41"/>
</g>
<!-- ODLogic -->
<g id="node8" class="node">
<title>ODLogic</title>
<polygon fill="#f6f8fa" stroke="none" points="817.5,-244 817.5,-300 959.5,-300 959.5,-244 817.5,-244"/>
<polygon fill="#0366d6" stroke="none" points="817.5,-276.5 817.5,-300 959.5,-300 959.5,-276.5 817.5,-276.5"/>
<polygon fill="none" stroke="#d1d5da" points="817.5,-276.5 817.5,-300 959.5,-300 959.5,-276.5 817.5,-276.5"/>
<text xml:space="preserve" text-anchor="start" x="857.38" y="-285.55" font-family="Inter, Arial" font-weight="bold" font-size="11.00" fill="#ffffff">OD ENGINE</text>
<polygon fill="none" stroke="#d1d5da" points="817.5,-244 817.5,-276.5 959.5,-276.5 959.5,-244 817.5,-244"/>
<text xml:space="preserve" text-anchor="start" x="828.5" y="-256.95" font-family="Inter, Arial" font-size="9.00" fill="#24292e">Complex Approval Workflows</text>
</g>
<!-- FastAPI&#45;&gt;ODLogic -->
<g id="edge8" class="edge">
<title>FastAPI&#45;&gt;ODLogic</title>
<path fill="none" stroke="#d1d5da" stroke-width="2" d="M703.42,-231.07C731.55,-237.33 765.86,-244.96 797.21,-251.92"/>
<polygon fill="#d1d5da" stroke="#d1d5da" stroke-width="2" points="796.03,-255.25 806.55,-254 797.55,-248.42 796.03,-255.25"/>
</g>
<!-- Analytics -->
<g id="node9" class="node">
<title>Analytics</title>
<polygon fill="#f6f8fa" stroke="none" points="830.25,-137 830.25,-193 946.75,-193 946.75,-137 830.25,-137"/>
<polygon fill="#0366d6" stroke="none" points="830.25,-169.5 830.25,-193 946.75,-193 946.75,-169.5 830.25,-169.5"/>
<polygon fill="none" stroke="#d1d5da" points="830.25,-169.5 830.25,-193 946.75,-193 946.75,-169.5 830.25,-169.5"/>
<text xml:space="preserve" text-anchor="start" x="836.38" y="-178.55" font-family="Inter, Arial" font-weight="bold" font-size="11.00" fill="#ffffff">WORKLOAD AUDIT</text>
<polygon fill="none" stroke="#d1d5da" points="830.25,-137 830.25,-169.5 946.75,-169.5 946.75,-137 830.25,-137"/>
<text xml:space="preserve" text-anchor="start" x="841.25" y="-149.95" font-family="Inter, Arial" font-size="9.00" fill="#24292e">Performance AI Engine</text>
</g>
<!-- FastAPI&#45;&gt;Analytics -->
<g id="edge9" class="edge">
<title>FastAPI&#45;&gt;Analytics</title>
<path fill="none" stroke="#d1d5da" stroke-width="2" d="M703.42,-205.17C735.43,-198.19 775.43,-189.46 809.96,-181.92"/>
<polygon fill="#d1d5da" stroke="#d1d5da" stroke-width="2" points="810.43,-185.4 819.46,-179.85 808.94,-178.56 810.43,-185.4"/>
</g>
<!-- Postgres -->
<g id="node10" class="node">
<title>Postgres</title>
<polygon fill="#f6f8fa" stroke="none" points="1062.5,-299 1062.5,-355 1189.5,-355 1189.5,-299 1062.5,-299"/>
<polygon fill="#0366d6" stroke="none" points="1062.5,-331.5 1062.5,-355 1189.5,-355 1189.5,-331.5 1062.5,-331.5"/>
<polygon fill="none" stroke="#d1d5da" points="1062.5,-331.5 1062.5,-355 1189.5,-355 1189.5,-331.5 1062.5,-331.5"/>
<text xml:space="preserve" text-anchor="start" x="1095.25" y="-340.55" font-family="Inter, Arial" font-weight="bold" font-size="11.00" fill="#ffffff">DATABASE</text>
<polygon fill="none" stroke="#d1d5da" points="1062.5,-299 1062.5,-331.5 1189.5,-331.5 1189.5,-299 1062.5,-299"/>
<text xml:space="preserve" text-anchor="start" x="1073.5" y="-311.95" font-family="Inter, Arial" font-size="9.00" fill="#24292e">PostgreSQL (Persistence)</text>
</g>
<!-- ODLogic&#45;&gt;Postgres -->
<g id="edge10" class="edge">
<title>ODLogic&#45;&gt;Postgres</title>
<path fill="none" stroke="#d1d5da" stroke-width="2" d="M967.26,-290.16C991.34,-295.78 1017.94,-302 1042.33,-307.69"/>
<polygon fill="#d1d5da" stroke="#d1d5da" stroke-width="2" points="1041.38,-311.07 1051.91,-309.93 1042.97,-304.25 1041.38,-311.07"/>
</g>
<!-- Kafka -->
<g id="node11" class="node">
<title>Kafka</title>
<polygon fill="#f6f8fa" stroke="none" points="1077.12,-192 1077.12,-248 1174.88,-248 1174.88,-192 1077.12,-192"/>
<polygon fill="#d73a49" stroke="none" points="1077.12,-224.5 1077.12,-248 1174.88,-248 1174.88,-224.5 1077.12,-224.5"/>
<polygon fill="none" stroke="#d1d5da" points="1077.12,-224.5 1077.12,-248 1174.88,-248 1174.88,-224.5 1077.12,-224.5"/>
<text xml:space="preserve" text-anchor="start" x="1084.75" y="-233.55" font-family="Inter, Arial" font-weight="bold" font-size="11.00" fill="#ffffff">MESSAGE BUS</text>
<polygon fill="none" stroke="#d1d5da" points="1077.12,-192 1077.12,-224.5 1174.88,-224.5 1174.88,-192 1077.12,-192"/>
<text xml:space="preserve" text-anchor="start" x="1088.12" y="-204.95" font-family="Inter, Arial" font-size="9.00" fill="#24292e">Event&#45;Driven Sync</text>
</g>
<!-- ODLogic&#45;&gt;Kafka -->
<g id="edge11" class="edge">
<title>ODLogic&#45;&gt;Kafka</title>
<path fill="none" stroke="#d1d5da" stroke-width="2" d="M967.26,-254.83C996.19,-248.44 1028.78,-241.25 1056.79,-235.06"/>
<polygon fill="#d1d5da" stroke="#d1d5da" stroke-width="2" points="1057.34,-238.52 1066.35,-232.95 1055.83,-231.69 1057.34,-238.52"/>
</g>
<!-- Redis -->
<g id="node12" class="node">
<title>Redis</title>
<polygon fill="#f6f8fa" stroke="none" points="1072.62,-85 1072.62,-141 1179.38,-141 1179.38,-85 1072.62,-85"/>
<polygon fill="#0366d6" stroke="none" points="1072.62,-117.5 1072.62,-141 1179.38,-141 1179.38,-117.5 1072.62,-117.5"/>
<polygon fill="none" stroke="#d1d5da" points="1072.62,-117.5 1072.62,-141 1179.38,-141 1179.38,-117.5 1072.62,-117.5"/>
<text xml:space="preserve" text-anchor="start" x="1096.38" y="-126.55" font-family="Inter, Arial" font-weight="bold" font-size="11.00" fill="#ffffff">KV CACHE</text>
<polygon fill="none" stroke="#d1d5da" points="1072.62,-85 1072.62,-117.5 1179.38,-117.5 1179.38,-85 1072.62,-85"/>
<text xml:space="preserve" text-anchor="start" x="1083.62" y="-97.95" font-family="Inter, Arial" font-size="9.00" fill="#24292e">Session Hot&#45;Storage</text>
</g>
<!-- Analytics&#45;&gt;Redis -->
<g id="edge13" class="edge">
<title>Analytics&#45;&gt;Redis</title>
<path fill="none" stroke="#d1d5da" stroke-width="2" d="M954.47,-150.65C984.75,-143.97 1020.89,-135.99 1052.09,-129.1"/>
<polygon fill="#d1d5da" stroke="#d1d5da" stroke-width="2" points="1052.72,-132.55 1061.73,-126.97 1051.21,-125.71 1052.72,-132.55"/>
</g>
<!-- Kafka&#45;&gt;Analytics -->
<g id="edge12" class="edge">
<title>Kafka&#45;&gt;Analytics</title>
<path fill="none" stroke="#d1d5da" stroke-width="2" d="M1069.42,-207.02C1038.87,-199.88 1000.49,-190.92 967.03,-183.11"/>
<polygon fill="#d1d5da" stroke="#d1d5da" stroke-width="2" points="967.96,-179.73 957.42,-180.86 966.36,-186.55 967.96,-179.73"/>
</g>
</g>
</svg>
