<?xml version="1.0" encoding="UTF-8" standalone="no"?>
<!DOCTYPE svg PUBLIC "-//W3C//DTD SVG 1.1//EN"
 "http://www.w3.org/Graphics/SVG/1.1/DTD/svg11.dtd">
<!-- Generated by graphviz version 14.1.2 (20260124.0452)
 -->
<!-- Title: ODTrack_Style_Refinement Pages: 1 -->
<svg width="626pt" height="792pt"
 viewBox="0.00 0.00 626.00 792.00" xmlns="http://www.w3.org/2000/svg" xmlns:xlink="http://www.w3.org/1999/xlink">
<g id="graph0" class="graph" transform="scale(1 1) rotate(0) translate(4 787.9)">
<title>ODTrack_Style_Refinement</title>
<polygon fill="#ffffff" stroke="none" points="-4,4 -4,-787.9 622,-787.9 622,4 -4,4"/>
<g id="clust1" class="cluster">
<title>cluster_top</title>
</g>
<g id="clust2" class="cluster">
<title>cluster_client</title>
<path fill="#ffffff" stroke="#2c5e9e" stroke-width="2" d="M453,-607.65C453,-607.65 533,-607.65 533,-607.65 539,-607.65 545,-613.65 545,-619.65 545,-619.65 545,-755.9 545,-755.9 545,-761.9 539,-767.9 533,-767.9 533,-767.9 453,-767.9 453,-767.9 447,-767.9 441,-761.9 441,-755.9 441,-755.9 441,-619.65 441,-619.65 441,-613.65 447,-607.65 453,-607.65"/>
<text xml:space="preserve" text-anchor="middle" x="493" y="-750.6" font-family="Arial" font-size="14.00">Client</text>
</g>
<g id="clust3" class="cluster">
<title>cluster_gate</title>
<path fill="#ffffff" stroke="#2c5e9e" stroke-width="2" d="M453,-345.2C453,-345.2 590,-345.2 590,-345.2 596,-345.2 602,-351.2 602,-357.2 602,-357.2 602,-553.65 602,-553.65 602,-559.65 596,-565.65 590,-565.65 590,-565.65 453,-565.65 453,-565.65 447,-565.65 441,-559.65 441,-553.65 441,-553.65 441,-357.2 441,-357.2 441,-351.2 447,-345.2 453,-345.2"/>
<text xml:space="preserve" text-anchor="middle" x="521.5" y="-548.35" font-family="Arial" font-size="14.00">API Gateway &amp; Security</text>
</g>
<g id="clust4" class="cluster">
<title>cluster_main_tier</title>
<path fill="#ffffff" stroke="#2c5e9e" stroke-width="2" d="M251,-90.5C251,-90.5 413,-90.5 413,-90.5 419,-90.5 425,-96.5 425,-102.5 425,-102.5 425,-424.29 425,-424.29 425,-430.29 419,-436.29 413,-436.29 413,-436.29 251,-436.29 251,-436.29 245,-436.29 239,-430.29 239,-424.29 239,-424.29 239,-102.5 239,-102.5 239,-96.5 245,-90.5 251,-90.5"/>
</g>
<g id="clust5" class="cluster">
<title>cluster_app</title>
<polygon fill="none" stroke="none" stroke-width="2" points="247,-231.59 247,-428.29 417,-428.29 417,-231.59 247,-231.59"/>
<text xml:space="preserve" text-anchor="middle" x="332" y="-410.99" font-family="Arial" font-size="14.00">Application Tier</text>
</g>
<g id="clust6" class="cluster">
<title>cluster_data</title>
<polygon fill="none" stroke="none" stroke-width="2" points="265,-98.5 265,-188.44 363,-188.44 363,-98.5 265,-98.5"/>
<text xml:space="preserve" text-anchor="middle" x="314" y="-171.14" font-family="Arial" font-size="14.00">Data Tier</text>
</g>
<g id="clust7" class="cluster">
<title>cluster_bottom</title>
</g>
<g id="clust8" class="cluster">
<title>cluster_obs</title>
<polygon fill="#f2f2f2" stroke="#bbbbbb" points="16,-105.34 16,-181.59 112,-181.59 112,-105.34 16,-105.34"/>
<text xml:space="preserve" text-anchor="middle" x="64" y="-164.29" font-family="Arial" font-size="14.00">Monitoring</text>
</g>
<!-- Mobile -->
<g id="node1" class="node">
<title>Mobile</title>
<polygon fill="#ffffff" stroke="#2c5e9e" points="537.38,-652.15 448.62,-652.15 448.62,-615.65 537.38,-615.65 537.38,-652.15"/>
<text xml:space="preserve" text-anchor="middle" x="493" y="-636.75" font-family="Arial" font-size="12.00">Flutter Mobile</text>
<text xml:space="preserve" text-anchor="middle" x="493" y="-622.5" font-family="Arial" font-size="12.00">Client</text>
</g>
<!-- Nginx -->
<g id="node3" class="node">
<title>Nginx</title>
<polygon fill="#ffc107" stroke="#cc9a06" points="528.78,-504.09 509.39,-533.9 470.61,-533.9 451.22,-504.09 470.61,-474.29 509.39,-474.29 528.78,-504.09"/>
<text xml:space="preserve" text-anchor="middle" x="490" y="-506.94" font-family="Arial" font-size="12.00">Nginx</text>
<text xml:space="preserve" text-anchor="middle" x="490" y="-492.69" font-family="Arial" font-size="12.00">Proxy</text>
</g>
<!-- Mobile&#45;&gt;Nginx -->
<g id="edge2" class="edge">
<title>Mobile&#45;&gt;Nginx</title>
<path fill="none" stroke="#2c5e9e" stroke-width="2" d="M492.59,-615.39C492.18,-597.82 491.53,-570.1 490.98,-546.85"/>
<polygon fill="#2c5e9e" stroke="#2c5e9e" stroke-width="2" points="494.49,-547.07 490.75,-537.16 487.49,-547.24 494.49,-547.07"/>
<text xml:space="preserve" text-anchor="middle" x="522.11" y="-588.15" font-family="Arial" font-size="10.00">HTTPS (443)</text>
<text xml:space="preserve" text-anchor="middle" x="522.11" y="-576.15" font-family="Arial" font-size="10.00">🔒 JWT Auth</text>
</g>
<!-- Person -->
<g id="node2" class="node">
<title>Person</title>
<polygon fill="lightgrey" stroke="none" points="520,-736.15 466,-736.15 466,-700.15 520,-700.15 520,-736.15"/>
<text xml:space="preserve" text-anchor="middle" x="493" y="-713.87" font-family="Arial" font-size="12.00" fill="#000000">User</text>
</g>
<!-- Person&#45;&gt;Mobile -->
<g id="edge1" class="edge">
<title>Person&#45;&gt;Mobile</title>
<path fill="none" stroke="#2c5e9e" stroke-width="2" d="M493,-687.55C493,-680.27 493,-672.47 493,-665.16"/>
<polygon fill="#2c5e9e" stroke="#2c5e9e" stroke-width="2" points="489.5,-687.47 493,-697.47 496.5,-687.47 489.5,-687.47"/>
<polygon fill="#2c5e9e" stroke="#2c5e9e" stroke-width="2" points="496.5,-665.39 493,-655.39 489.5,-665.39 496.5,-665.39"/>
<text xml:space="preserve" text-anchor="middle" x="509.5" y="-672.65" font-family="Arial" font-size="10.00">Interact</text>
</g>
<!-- Gateway -->
<g id="node4" class="node">
<title>Gateway</title>
<path fill="#98b4d4" stroke="#2c5e9e" d="M520.25,-398.82C520.25,-401.34 504.9,-403.39 486,-403.39 467.1,-403.39 451.75,-401.34 451.75,-398.82 451.75,-398.82 451.75,-357.76 451.75,-357.76 451.75,-355.24 467.1,-353.2 486,-353.2 504.9,-353.2 520.25,-355.24 520.25,-357.76 520.25,-357.76 520.25,-398.82 520.25,-398.82"/>
<path fill="none" stroke="#2c5e9e" d="M520.25,-398.82C520.25,-396.31 504.9,-394.26 486,-394.26 467.1,-394.26 451.75,-396.31 451.75,-398.82"/>
<text xml:space="preserve" text-anchor="middle" x="486" y="-381.14" font-family="Arial" font-size="12.00">Container</text>
<text xml:space="preserve" text-anchor="middle" x="486" y="-366.89" font-family="Arial" font-size="12.00">(FastAPI)</text>
</g>
<!-- Nginx&#45;&gt;Gateway -->
<g id="edge3" class="edge">
<title>Nginx&#45;&gt;Gateway</title>
<path fill="none" stroke="#2c5e9e" stroke-width="2" d="M489.06,-474.07C488.51,-456.9 487.8,-434.98 487.2,-416.54"/>
<polygon fill="#2c5e9e" stroke="#2c5e9e" stroke-width="2" points="490.7,-416.46 486.88,-406.58 483.71,-416.69 490.7,-416.46"/>
<text xml:space="preserve" text-anchor="middle" x="506.1" y="-446.79" font-family="Arial" font-size="10.00">Forward</text>
</g>
<!-- FastAPI -->
<g id="node5" class="node">
<title>FastAPI</title>
<polygon fill="#ffc107" stroke="#cc9a06" points="408.75,-269.4 370.38,-299.2 293.62,-299.2 255.25,-269.4 293.62,-239.59 370.38,-239.59 408.75,-269.4"/>
<text xml:space="preserve" text-anchor="middle" x="332" y="-272.25" font-family="Arial" font-size="12.00">FastAPI 0.111</text>
<text xml:space="preserve" text-anchor="middle" x="332" y="-258" font-family="Arial" font-size="12.00">(Logic Engine)</text>
</g>
<!-- Gateway&#45;&gt;FastAPI -->
<g id="edge4" class="edge">
<title>Gateway&#45;&gt;FastAPI</title>
<path fill="none" stroke="#2c5e9e" stroke-width="2" d="M453.34,-354.62C432.74,-340.33 405.73,-321.57 382.42,-305.39"/>
<polygon fill="#2c5e9e" stroke="#2c5e9e" stroke-width="2" points="384.7,-302.72 374.49,-299.89 380.71,-308.47 384.7,-302.72"/>
<text xml:space="preserve" text-anchor="middle" x="433.12" y="-319.7" font-family="Arial" font-size="10.00">TLS Link</text>
</g>
<!-- MinIO -->
<g id="node7" class="node">
<title>MinIO</title>
<path fill="#98b4d4" stroke="#507aa6" d="M355,-152.12C355,-154.64 336.62,-156.69 314,-156.69 291.38,-156.69 273,-154.64 273,-152.12 273,-152.12 273,-111.06 273,-111.06 273,-108.54 291.38,-106.5 314,-106.5 336.62,-106.5 355,-108.54 355,-111.06 355,-111.06 355,-152.12 355,-152.12"/>
<path fill="none" stroke="#507aa6" d="M355,-152.12C355,-149.61 336.62,-147.56 314,-147.56 291.38,-147.56 273,-149.61 273,-152.12"/>
<text xml:space="preserve" text-anchor="middle" x="314" y="-134.44" font-family="Arial" font-size="12.00">MinIO</text>
<text xml:space="preserve" text-anchor="middle" x="314" y="-120.19" font-family="Arial" font-size="12.00">Object Store</text>
</g>
<!-- FastAPI&#45;&gt;MinIO -->
<g id="edge6" class="edge">
<title>FastAPI&#45;&gt;MinIO</title>
<path fill="none" stroke="#2c5e9e" stroke-width="2" d="M328.14,-239.26C325.45,-219 321.85,-191.8 318.95,-169.94"/>
<polygon fill="#2c5e9e" stroke="#2c5e9e" stroke-width="2" points="322.43,-169.59 317.65,-160.13 315.49,-170.51 322.43,-169.59"/>
<text xml:space="preserve" text-anchor="middle" x="356.41" y="-206.09" font-family="Arial" font-size="10.00">Store Binaries</text>
</g>
<!-- Postgres -->
<g id="node8" class="node">
<title>Postgres</title>
<path fill="#98b4d4" stroke="#507aa6" d="M223.38,-146.32C223.38,-148.13 200.8,-149.59 173,-149.59 145.2,-149.59 122.62,-148.13 122.62,-146.32 122.62,-146.32 122.62,-116.87 122.62,-116.87 122.62,-115.06 145.2,-113.59 173,-113.59 200.8,-113.59 223.38,-115.06 223.38,-116.87 223.38,-116.87 223.38,-146.32 223.38,-146.32"/>
<path fill="none" stroke="#507aa6" d="M223.38,-146.32C223.38,-144.52 200.8,-143.05 173,-143.05 145.2,-143.05 122.62,-144.52 122.62,-146.32"/>
<text xml:space="preserve" text-anchor="middle" x="173" y="-127.32" font-family="Arial" font-size="12.00">PostgreSQL DB</text>
</g>
<!-- FastAPI&#45;&gt;Postgres -->
<g id="edge7" class="edge">
<title>FastAPI&#45;&gt;Postgres</title>
<path fill="none" stroke="#2c5e9e" stroke-width="2" d="M290.07,-241.9C280.84,-235.56 271.27,-228.59 262.75,-221.59 239.18,-202.23 214.74,-177.65 197.33,-159.23"/>
<polygon fill="#2c5e9e" stroke="#2c5e9e" stroke-width="2" points="200.12,-157.09 190.74,-152.18 195.01,-161.87 200.12,-157.09"/>
<text xml:space="preserve" text-anchor="middle" x="290.88" y="-212.09" font-family="Arial" font-size="10.00">SQL Queries</text>
<text xml:space="preserve" text-anchor="middle" x="290.88" y="-200.09" font-family="Arial" font-size="10.00">(v16)</text>
</g>
<!-- Prom -->
<g id="node10" class="node">
<title>Prom</title>
<polygon fill="none" stroke="black" points="104.25,-149.84 23.75,-149.84 23.75,-113.34 104.25,-113.34 104.25,-149.84"/>
<text xml:space="preserve" text-anchor="middle" x="64" y="-134.44" font-family="Arial" font-size="12.00">Prometheus</text>
<text xml:space="preserve" text-anchor="middle" x="64" y="-120.19" font-family="Arial" font-size="12.00">Grafana</text>
</g>
<!-- FastAPI&#45;&gt;Prom -->
<g id="edge10" class="edge">
<title>FastAPI&#45;&gt;Prom</title>
<path fill="none" stroke="#2c5e9e" stroke-width="2" stroke-dasharray="5,2" d="M269.75,-257.76C221.64,-247.05 155.45,-226.62 108,-189.59 97.79,-181.63 88.65,-170.78 81.37,-160.69"/>
<polygon fill="#2c5e9e" stroke="#2c5e9e" stroke-width="2" points="84.46,-159.01 75.95,-152.71 78.67,-162.94 84.46,-159.01"/>
<text xml:space="preserve" text-anchor="middle" x="183.25" y="-206.09" font-family="Arial" font-size="10.00">Scrape Port</text>
</g>
<!-- Auth -->
<g id="node6" class="node">
<title>Auth</title>
<polygon fill="#ffffff" stroke="#2c5e9e" points="370,-396.54 294,-396.54 294,-360.04 370,-360.04 370,-396.54"/>
<text xml:space="preserve" text-anchor="middle" x="332" y="-381.14" font-family="Arial" font-size="12.00">JWT Filter</text>
<text xml:space="preserve" text-anchor="middle" x="332" y="-366.89" font-family="Arial" font-size="12.00">REST Auth</text>
</g>
<!-- Auth&#45;&gt;FastAPI -->
<g id="edge5" class="edge">
<title>Auth&#45;&gt;FastAPI</title>
<path fill="none" stroke="#2c5e9e" stroke-width="2" d="M332,-359.64C332,-346.73 332,-328.65 332,-312.14"/>
<polygon fill="#2c5e9e" stroke="#2c5e9e" stroke-width="2" points="335.5,-312.39 332,-302.39 328.5,-312.39 335.5,-312.39"/>
<text xml:space="preserve" text-anchor="middle" x="354.5" y="-319.7" font-family="Arial" font-size="10.00">JWT Valid</text>
</g>
<!-- PDF -->
<g id="node9" class="node">
<title>PDF</title>
<polygon fill="#ffffff" stroke="#2c5e9e" points="217.25,-52.5 118.75,-52.5 118.75,-16 223.25,-16 223.25,-46.5 217.25,-52.5"/>
<polyline fill="none" stroke="#2c5e9e" points="217.25,-52.5 217.25,-46.5"/>
<polyline fill="none" stroke="#2c5e9e" points="223.25,-46.5 217.25,-46.5"/>
<text xml:space="preserve" text-anchor="middle" x="171" y="-37.1" font-family="Arial" font-size="12.00">PDF Documents</text>
<text xml:space="preserve" text-anchor="middle" x="171" y="-22.85" font-family="Arial" font-size="12.00">(Reports)</text>
</g>
<!-- MinIO&#45;&gt;PDF -->
<g id="edge8" class="edge">
<title>MinIO&#45;&gt;PDF</title>
<path fill="none" stroke="#2c5e9e" stroke-width="2" d="M279.38,-107.51C257.75,-93.09 229.9,-74.52 207.85,-59.82"/>
<polygon fill="#2c5e9e" stroke="#2c5e9e" stroke-width="2" points="210.01,-57.06 199.75,-54.42 206.13,-62.88 210.01,-57.06"/>
<text xml:space="preserve" text-anchor="middle" x="252.46" y="-73" font-family="Arial" font-size="10.00">Export</text>
</g>
<!-- Postgres&#45;&gt;PDF -->
<g id="edge9" class="edge">
<title>Postgres&#45;&gt;PDF</title>
<path fill="none" stroke="#2c5e9e" stroke-width="2" d="M172.63,-113.11C172.36,-99.88 171.97,-81.4 171.64,-65.76"/>
<polygon fill="#2c5e9e" stroke="#2c5e9e" stroke-width="2" points="175.14,-65.9 171.43,-55.98 168.15,-66.05 175.14,-65.9"/>
<text xml:space="preserve" text-anchor="middle" x="192.19" y="-73" font-family="Arial" font-size="10.00">Metadata</text>
</g>
<!-- Admin -->
<g id="node11" class="node">
<title>Admin</title>
<polygon fill="lightgrey" stroke="none" points="110.62,-287.4 17.38,-287.4 17.38,-251.4 110.62,-251.4 110.62,-287.4"/>
<text xml:space="preserve" text-anchor="middle" x="64" y="-265.12" font-family="Arial" font-size="12.00">System Admin</text>
</g>
<!-- Admin&#45;&gt;Prom -->
<g id="edge11" class="edge">
<title>Admin&#45;&gt;Prom</title>
<path fill="none" stroke="#2c5e9e" stroke-width="2" d="M64,-251.47C64,-229.33 64,-190.15 64,-162.85"/>
<polygon fill="#2c5e9e" stroke="#2c5e9e" stroke-width="2" points="67.5,-163.19 64,-153.19 60.5,-163.19 67.5,-163.19"/>
<text xml:space="preserve" text-anchor="middle" x="87.62" y="-206.09" font-family="Arial" font-size="10.00">Dashboard</text>
</g>
</g>
</svg>
