<?xml version="1.0" encoding="UTF-8" standalone="no"?>
<!DOCTYPE svg PUBLIC "-//W3C//DTD SVG 1.1//EN"
 "http://www.w3.org/Graphics/SVG/1.1/DTD/svg11.dtd">
<!-- Generated by graphviz version 14.1.2 (20260124.0452)
 -->
<!-- Title: ODTrack_Style_Match Pages: 1 -->
<svg width="669pt" height="693pt"
 viewBox="0.00 0.00 669.00 693.00" xmlns="http://www.w3.org/2000/svg" xmlns:xlink="http://www.w3.org/1999/xlink">
<g id="graph0" class="graph" transform="scale(1 1) rotate(0) translate(4 689.01)">
<title>ODTrack_Style_Match</title>
<polygon fill="#ffffff" stroke="none" points="-4,4 -4,-689.01 665.42,-689.01 665.42,4 -4,4"/>
<text xml:space="preserve" text-anchor="middle" x="330.71" y="-646.81" font-family="Arial Bold" font-size="16.00">ODTrack Academia™: Enterprise Workflow Architecture</text>
<text xml:space="preserve" text-anchor="middle" x="330.71" y="-628.06" font-family="Arial Bold" font-size="16.00">(High&#45;Contrast System Design)</text>
<g id="clust1" class="cluster">
<title>cluster_client</title>
<path fill="#ffffff" stroke="#5397d5" stroke-width="2" d="M338,-454.26C338,-454.26 442,-454.26 442,-454.26 448,-454.26 454,-460.26 454,-466.26 454,-466.26 454,-600.51 454,-600.51 454,-606.51 448,-612.51 442,-612.51 442,-612.51 338,-612.51 338,-612.51 332,-612.51 326,-606.51 326,-600.51 326,-600.51 326,-466.26 326,-466.26 326,-460.26 332,-454.26 338,-454.26"/>
<text xml:space="preserve" text-anchor="middle" x="390" y="-595.21" font-family="Arial Bold" font-size="14.00">Client</text>
</g>
<g id="clust2" class="cluster">
<title>cluster_gateway</title>
<path fill="#ffffff" stroke="#5397d5" stroke-width="2" d="M317,-240.76C317,-240.76 463,-240.76 463,-240.76 469,-240.76 475,-246.76 475,-252.76 475,-252.76 475,-403.26 475,-403.26 475,-409.26 469,-415.26 463,-415.26 463,-415.26 317,-415.26 317,-415.26 311,-415.26 305,-409.26 305,-403.26 305,-403.26 305,-252.76 305,-252.76 305,-246.76 311,-240.76 317,-240.76"/>
<text xml:space="preserve" text-anchor="middle" x="390" y="-397.96" font-family="Arial Bold" font-size="14.00">API Gateway &amp; Security</text>
</g>
<g id="clust3" class="cluster">
<title>cluster_app</title>
<polygon fill="#5397d5" stroke="#5397d5" stroke-width="2" points="138,-120.25 138,-212.26 636,-212.26 636,-120.25 138,-120.25"/>
<text xml:space="preserve" text-anchor="middle" x="387" y="-194.96" font-family="Arial Bold" font-size="14.00">Application Tier</text>
</g>
<g id="clust4" class="cluster">
<title>cluster_data</title>
<polygon fill="#5397d5" stroke="#5397d5" stroke-width="2" points="187,-8 187,-91.75 551,-91.75 551,-8 187,-8"/>
<text xml:space="preserve" text-anchor="middle" x="369" y="-74.45" font-family="Arial Bold" font-size="14.00">Data Tier</text>
</g>
<g id="clust5" class="cluster">
<title>cluster_monitor</title>
<polygon fill="#cccccc" stroke="#cccccc" points="8,-12 8,-87.75 179,-87.75 179,-12 8,-12"/>
<text xml:space="preserve" text-anchor="middle" x="93.5" y="-70.45" font-family="Arial Bold" font-size="14.00">Observability stack</text>
</g>
<!-- Flutter -->
<g id="node1" class="node">
<title>Flutter</title>
<polygon fill="#ffffff" stroke="#5397d5" points="446.38,-498.26 333.62,-498.26 333.62,-462.26 446.38,-462.26 446.38,-498.26"/>
<text xml:space="preserve" text-anchor="middle" x="390" y="-482.76" font-family="Arial" font-size="10.00">Flutter Mobile / Web</text>
<text xml:space="preserve" text-anchor="middle" x="390" y="-470.76" font-family="Arial" font-size="10.00">(Riverpod Framework)</text>
</g>
<!-- Nginx -->
<g id="node3" class="node">
<title>Nginx</title>
<polygon fill="#f9b115" stroke="#b37d00" points="456.34,-357.38 423.17,-383.51 356.83,-383.51 323.66,-357.38 356.83,-331.26 423.17,-331.26 456.34,-357.38"/>
<text xml:space="preserve" text-anchor="middle" x="390" y="-359.88" font-family="Arial" font-size="10.00">Nginx / WAF</text>
<text xml:space="preserve" text-anchor="middle" x="390" y="-347.88" font-family="Arial" font-size="10.00">Reverse Proxy</text>
</g>
<!-- Flutter&#45;&gt;Nginx -->
<g id="edge2" class="edge">
<title>Flutter&#45;&gt;Nginx</title>
<path fill="none" stroke="#243e58" stroke-width="1.5" d="M390,-461.94C390,-444.73 390,-417.77 390,-395.68"/>
<polygon fill="#243e58" stroke="#243e58" stroke-width="1.5" points="393.5,-395.94 390,-385.94 386.5,-395.94 393.5,-395.94"/>
<text xml:space="preserve" text-anchor="middle" x="416.62" y="-435.71" font-family="Arial" font-size="9.00">HTTPS (443)</text>
<text xml:space="preserve" text-anchor="middle" x="416.62" y="-425.21" font-family="Arial" font-size="9.00">JWT Filtered</text>
</g>
<!-- Person -->
<g id="node2" class="node">
<title>Person</title>
<polygon fill="lightgrey" stroke="none" points="417,-580.76 363,-580.76 363,-544.76 417,-544.76 417,-580.76"/>
<text xml:space="preserve" text-anchor="middle" x="390" y="-559.26" font-family="Arial" font-size="10.00">User</text>
</g>
<!-- Person&#45;&gt;Flutter -->
<g id="edge1" class="edge">
<title>Person&#45;&gt;Flutter</title>
<path fill="none" stroke="#243e58" stroke-width="1.5" d="M390,-545.08C390,-535.24 390,-522.51 390,-511"/>
<polygon fill="#243e58" stroke="#243e58" stroke-width="1.5" points="393.5,-511.03 390,-501.03 386.5,-511.03 393.5,-511.03"/>
<text xml:space="preserve" text-anchor="middle" x="411.38" y="-518.21" font-family="Arial" font-size="9.00">Interaction</text>
</g>
<!-- Gateway -->
<g id="node4" class="node">
<title>Gateway</title>
<polygon fill="#ffffff" stroke="#5397d5" points="437,-284.76 343,-284.76 343,-248.76 437,-248.76 437,-284.76"/>
<text xml:space="preserve" text-anchor="middle" x="390" y="-269.26" font-family="Arial" font-size="10.00">FastAPI Gateway</text>
<text xml:space="preserve" text-anchor="middle" x="390" y="-257.26" font-family="Arial" font-size="10.00">Service Router</text>
</g>
<!-- Nginx&#45;&gt;Gateway -->
<g id="edge3" class="edge">
<title>Nginx&#45;&gt;Gateway</title>
<path fill="none" stroke="#243e58" stroke-width="1.5" d="M390,-331.22C390,-320.63 390,-308.23 390,-297.21"/>
<polygon fill="#243e58" stroke="#243e58" stroke-width="1.5" points="393.5,-297.38 390,-287.38 386.5,-297.38 393.5,-297.38"/>
<text xml:space="preserve" text-anchor="middle" x="409.88" y="-304.71" font-family="Arial" font-size="9.00">Upstream</text>
</g>
<!-- AuthSvc -->
<g id="node5" class="node">
<title>AuthSvc</title>
<polygon fill="#f9b115" stroke="#b37d00" points="287.63,-154.38 252.31,-180.51 181.69,-180.51 146.37,-154.38 181.69,-128.25 252.31,-128.25 287.63,-154.38"/>
<text xml:space="preserve" text-anchor="middle" x="217" y="-156.88" font-family="Arial" font-size="10.00">Identity Service</text>
<text xml:space="preserve" text-anchor="middle" x="217" y="-144.88" font-family="Arial" font-size="10.00">(OIDC / RS256)</text>
</g>
<!-- Gateway&#45;&gt;AuthSvc -->
<g id="edge4" class="edge">
<title>Gateway&#45;&gt;AuthSvc</title>
<path fill="none" stroke="#243e58" stroke-width="1.5" d="M357.2,-248.37C347.11,-242.88 336.03,-236.69 326,-230.76 303.91,-217.69 280.37,-201.7 260.85,-187.81"/>
<polygon fill="#243e58" stroke="#243e58" stroke-width="1.5" points="263.04,-185.08 252.87,-182.09 258.96,-190.76 263.04,-185.08"/>
<text xml:space="preserve" text-anchor="middle" x="356" y="-222.21" font-family="Arial" font-size="9.00">Validate Token</text>
</g>
<!-- ODLogic -->
<g id="node6" class="node">
<title>ODLogic</title>
<polygon fill="#f9b115" stroke="#b37d00" points="474.1,-154.38 432.05,-180.51 347.95,-180.51 305.9,-154.38 347.95,-128.25 432.05,-128.25 474.1,-154.38"/>
<text xml:space="preserve" text-anchor="middle" x="390" y="-156.88" font-family="Arial" font-size="10.00">Workflow Engine</text>
<text xml:space="preserve" text-anchor="middle" x="390" y="-144.88" font-family="Arial" font-size="10.00">(OD Request Logic)</text>
</g>
<!-- Gateway&#45;&gt;ODLogic -->
<g id="edge5" class="edge">
<title>Gateway&#45;&gt;ODLogic</title>
<path fill="none" stroke="#243e58" stroke-width="1.5" d="M390,-248.51C390,-233.66 390,-211.71 390,-192.84"/>
<polygon fill="#243e58" stroke="#243e58" stroke-width="1.5" points="393.5,-192.97 390,-182.97 386.5,-192.97 393.5,-192.97"/>
<text xml:space="preserve" text-anchor="middle" x="407.25" y="-222.21" font-family="Arial" font-size="9.00">Request</text>
</g>
<!-- Analytics -->
<g id="node7" class="node">
<title>Analytics</title>
<polygon fill="#f9b115" stroke="#b37d00" points="627.57,-154.38 593.78,-180.51 526.22,-180.51 492.43,-154.38 526.22,-128.25 593.78,-128.25 627.57,-154.38"/>
<text xml:space="preserve" text-anchor="middle" x="560" y="-156.88" font-family="Arial" font-size="10.00">Analytics Hub</text>
<text xml:space="preserve" text-anchor="middle" x="560" y="-144.88" font-family="Arial" font-size="10.00">(ML Processor)</text>
</g>
<!-- Gateway&#45;&gt;Analytics -->
<g id="edge6" class="edge">
<title>Gateway&#45;&gt;Analytics</title>
<path fill="none" stroke="#243e58" stroke-width="1.5" d="M422.39,-248.32C440.52,-238.26 463.36,-225.1 483,-212.26 494.4,-204.8 506.38,-196.3 517.42,-188.17"/>
<polygon fill="#243e58" stroke="#243e58" stroke-width="1.5" points="519.48,-191 525.42,-182.22 515.3,-185.38 519.48,-191"/>
<text xml:space="preserve" text-anchor="middle" x="482.8" y="-222.21" font-family="Arial" font-size="9.00">Stream</text>
</g>
<!-- Redis -->
<g id="node10" class="node">
<title>Redis</title>
<path fill="#7c9cbf" stroke="#243e58" d="M289,-56C289,-58.21 267.93,-60 242,-60 216.07,-60 195,-58.21 195,-56 195,-56 195,-20 195,-20 195,-17.79 216.07,-16 242,-16 267.93,-16 289,-17.79 289,-20 289,-20 289,-56 289,-56"/>
<path fill="none" stroke="#243e58" d="M289,-56C289,-53.79 267.93,-52 242,-52 216.07,-52 195,-53.79 195,-56"/>
<text xml:space="preserve" text-anchor="middle" x="242" y="-40.5" font-family="Arial" font-size="10.00">Redis</text>
<text xml:space="preserve" text-anchor="middle" x="242" y="-28.5" font-family="Arial" font-size="10.00">Cache / Sessions</text>
</g>
<!-- AuthSvc&#45;&gt;Redis -->
<g id="edge7" class="edge">
<title>AuthSvc&#45;&gt;Redis</title>
<path fill="none" stroke="#243e58" stroke-width="1.5" d="M215.95,-127.81C216.04,-118.86 216.68,-108.79 218.5,-99.75 220.39,-90.35 223.61,-80.5 227.07,-71.55"/>
<polygon fill="#243e58" stroke="#243e58" stroke-width="1.5" points="230.23,-73.07 230.8,-62.49 223.75,-70.41 230.23,-73.07"/>
<text xml:space="preserve" text-anchor="middle" x="243.25" y="-101.7" font-family="Arial" font-size="9.00">Session Opt</text>
</g>
<!-- Postgres -->
<g id="node8" class="node">
<title>Postgres</title>
<path fill="#7c9cbf" stroke="#243e58" d="M464.62,-56C464.62,-58.21 449.11,-60 430,-60 410.89,-60 395.38,-58.21 395.38,-56 395.38,-56 395.38,-20 395.38,-20 395.38,-17.79 410.89,-16 430,-16 449.11,-16 464.62,-17.79 464.62,-20 464.62,-20 464.62,-56 464.62,-56"/>
<path fill="none" stroke="#243e58" d="M464.62,-56C464.62,-53.79 449.11,-52 430,-52 410.89,-52 395.38,-53.79 395.38,-56"/>
<text xml:space="preserve" text-anchor="middle" x="430" y="-40.5" font-family="Arial" font-size="10.00">PostgreSQL</text>
<text xml:space="preserve" text-anchor="middle" x="430" y="-28.5" font-family="Arial" font-size="10.00">Primary DB</text>
</g>
<!-- ODLogic&#45;&gt;Postgres -->
<g id="edge8" class="edge">
<title>ODLogic&#45;&gt;Postgres</title>
<path fill="none" stroke="#243e58" stroke-width="1.5" d="M398.88,-127.99C404.66,-111.44 412.27,-89.69 418.52,-71.83"/>
<polygon fill="#243e58" stroke="#243e58" stroke-width="1.5" points="421.74,-73.21 421.74,-62.61 415.14,-70.9 421.74,-73.21"/>
<text xml:space="preserve" text-anchor="middle" x="435.36" y="-101.7" font-family="Arial" font-size="9.00">ACID Commit</text>
</g>
<!-- Minio -->
<g id="node9" class="node">
<title>Minio</title>
<path fill="#7c9cbf" stroke="#243e58" d="M377.38,-56C377.38,-58.21 361.52,-60 342,-60 322.48,-60 306.62,-58.21 306.62,-56 306.62,-56 306.62,-20 306.62,-20 306.62,-17.79 322.48,-16 342,-16 361.52,-16 377.38,-17.79 377.38,-20 377.38,-20 377.38,-56 377.38,-56"/>
<path fill="none" stroke="#243e58" d="M377.38,-56C377.38,-53.79 361.52,-52 342,-52 322.48,-52 306.62,-53.79 306.62,-56"/>
<text xml:space="preserve" text-anchor="middle" x="342" y="-40.5" font-family="Arial" font-size="10.00">MinIO</text>
<text xml:space="preserve" text-anchor="middle" x="342" y="-28.5" font-family="Arial" font-size="10.00">Object Store</text>
</g>
<!-- ODLogic&#45;&gt;Minio -->
<g id="edge9" class="edge">
<title>ODLogic&#45;&gt;Minio</title>
<path fill="none" stroke="#243e58" stroke-width="1.5" d="M365.5,-127.93C361.28,-122.44 357.34,-116.42 354.5,-110.25 349.12,-98.56 346.05,-84.82 344.29,-72.54"/>
<polygon fill="#243e58" stroke="#243e58" stroke-width="1.5" points="347.78,-72.21 343.16,-62.68 340.82,-73.01 347.78,-72.21"/>
<text xml:space="preserve" text-anchor="middle" x="377.75" y="-101.7" font-family="Arial" font-size="9.00">Store PDFs</text>
</g>
<!-- Kafka -->
<g id="node11" class="node">
<title>Kafka</title>
<path fill="#ffffff" stroke="#d73a49" d="M543.12,-56C543.12,-58.21 529.62,-60 513,-60 496.38,-60 482.88,-58.21 482.88,-56 482.88,-56 482.88,-20 482.88,-20 482.88,-17.79 496.38,-16 513,-16 529.62,-16 543.12,-17.79 543.12,-20 543.12,-20 543.12,-56 543.12,-56"/>
<path fill="none" stroke="#d73a49" d="M543.12,-56C543.12,-53.79 529.62,-52 513,-52 496.38,-52 482.88,-53.79 482.88,-56"/>
<text xml:space="preserve" text-anchor="middle" x="513" y="-40.5" font-family="Arial" font-size="10.00">Kafka</text>
<text xml:space="preserve" text-anchor="middle" x="513" y="-28.5" font-family="Arial" font-size="10.00">Event Log</text>
</g>
<!-- ODLogic&#45;&gt;Kafka -->
<g id="edge10" class="edge">
<title>ODLogic&#45;&gt;Kafka</title>
<path fill="none" stroke="#d73a49" stroke-width="1.5" d="M437.68,-131.45C448.01,-125.45 458.4,-118.33 467,-110.25 478.91,-99.07 489.13,-84.2 496.9,-70.93"/>
<polygon fill="#d73a49" stroke="#d73a49" stroke-width="1.5" points="499.91,-72.71 501.72,-62.27 493.8,-69.31 499.91,-72.71"/>
<text xml:space="preserve" text-anchor="middle" x="498.24" y="-101.7" font-family="Arial" font-size="9.00">Event Emit</text>
</g>
<!-- Prometheus -->
<g id="node12" class="node">
<title>Prometheus</title>
<polygon fill="#e0e0e0" stroke="black" points="171.25,-56 102.75,-56 102.75,-20 171.25,-20 171.25,-56"/>
<text xml:space="preserve" text-anchor="middle" x="137" y="-40.5" font-family="Arial" font-size="10.00">Prometheus</text>
<text xml:space="preserve" text-anchor="middle" x="137" y="-28.5" font-family="Arial" font-size="10.00">Metrics</text>
</g>
<!-- ODLogic&#45;&gt;Prometheus -->
<g id="edge13" class="edge">
<title>ODLogic&#45;&gt;Prometheus</title>
<path fill="none" stroke="#243e58" stroke-width="1.5" stroke-dasharray="1,5" d="M345.19,-129.55C322.65,-118.64 294.54,-106.64 268,-99.75 231.27,-90.22 216.77,-109.06 183,-91.75 171.6,-85.91 161.8,-75.94 154.2,-66.22"/>
<polygon fill="#243e58" stroke="#243e58" stroke-width="1.5" points="157.12,-64.29 148.43,-58.22 151.44,-68.38 157.12,-64.29"/>
<text xml:space="preserve" text-anchor="middle" x="313.88" y="-101.7" font-family="Arial" font-size="9.00">Scrape</text>
</g>
<!-- Analytics&#45;&gt;Postgres -->
<g id="edge12" class="edge">
<title>Analytics&#45;&gt;Postgres</title>
<path fill="none" stroke="#243e58" stroke-width="1.5" d="M548.68,-127.99C542.79,-117.63 534.58,-106.52 524,-99.75 505.04,-87.62 493.56,-102.88 474,-91.75 464.61,-86.41 456.36,-78.25 449.61,-69.93"/>
<polygon fill="#243e58" stroke="#243e58" stroke-width="1.5" points="452.54,-68 443.77,-62.07 446.93,-72.18 452.54,-68"/>
<text xml:space="preserve" text-anchor="middle" x="565.86" y="-101.7" font-family="Arial" font-size="9.00">Cache Results</text>
</g>
<!-- Kafka&#45;&gt;Analytics -->
<g id="edge11" class="edge">
<title>Kafka&#45;&gt;Analytics</title>
<path fill="none" stroke="#243e58" stroke-width="1.5" d="M543.51,-47.21C568.72,-55.77 602.89,-71.95 619,-99.75 624.83,-109.81 620.48,-119.04 612.01,-126.91"/>
<polygon fill="#243e58" stroke="#243e58" stroke-width="1.5" points="609.98,-124.05 604.18,-132.91 614.25,-129.6 609.98,-124.05"/>
<text xml:space="preserve" text-anchor="middle" x="641.54" y="-101.7" font-family="Arial" font-size="9.00">Consume</text>
</g>
<!-- Grafana -->
<g id="node13" class="node">
<title>Grafana</title>
<polygon fill="#e0e0e0" stroke="black" points="84.25,-56 15.75,-56 15.75,-20 84.25,-20 84.25,-56"/>
<text xml:space="preserve" text-anchor="middle" x="50" y="-40.5" font-family="Arial" font-size="10.00">Grafana</text>
<text xml:space="preserve" text-anchor="middle" x="50" y="-28.5" font-family="Arial" font-size="10.00">Dashboards</text>
</g>
<!-- Admin -->
<g id="node14" class="node">
<title>Admin</title>
<polygon fill="lightgrey" stroke="none" points="89.88,-172.38 10.12,-172.38 10.12,-136.38 89.88,-136.38 89.88,-172.38"/>
<text xml:space="preserve" text-anchor="middle" x="50" y="-150.88" font-family="Arial" font-size="10.00">System Admin</text>
</g>
<!-- Admin&#45;&gt;Grafana -->
<g id="edge14" class="edge">
<title>Admin&#45;&gt;Grafana</title>
<path fill="none" stroke="#243e58" stroke-width="1.5" d="M50,-136.5C50,-118.61 50,-90.01 50,-68.41"/>
<polygon fill="#243e58" stroke="#243e58" stroke-width="1.5" points="53.5,-68.59 50,-58.59 46.5,-68.59 53.5,-68.59"/>
<text xml:space="preserve" text-anchor="middle" x="69.5" y="-101.7" font-family="Arial" font-size="9.00">View Ops</text>
</g>
</g>
</svg>
